<svg width="16" height="16" viewBox="0 0 16 16" fill="none" xmlns="http://www.w3.org/2000/svg">
<path d="M7.82395 6.86769L4.16695 10.5247C4.1004 10.5978 4.01985 10.6568 3.93009 10.6982C3.84032 10.7396 3.74317 10.7625 3.64437 10.7657C3.54557 10.7689 3.44713 10.7522 3.35489 10.7167C3.26265 10.6812 3.17847 10.6275 3.10734 10.5588C3.03622 10.4902 2.97959 10.408 2.94081 10.317C2.90203 10.2261 2.88188 10.1283 2.88157 10.0295C2.88125 9.93063 2.90077 9.83272 2.93897 9.74154C2.97716 9.65037 3.03327 9.56779 3.10395 9.49869L3.12195 9.48069L7.30095 5.30069C7.43954 5.16213 7.62748 5.08429 7.82345 5.08429C8.01942 5.08429 8.20737 5.16213 8.34595 5.30069L12.525 9.47969C12.5947 9.54712 12.6506 9.62764 12.6893 9.71665C12.7279 9.80566 12.7487 9.90142 12.7504 9.99846C12.7521 10.0955 12.7346 10.1919 12.699 10.2822C12.6634 10.3725 12.6104 10.4549 12.543 10.5247C12.4755 10.5945 12.395 10.6503 12.306 10.689C12.217 10.7277 12.1212 10.7484 12.0242 10.7501C11.9271 10.7518 11.8307 10.7343 11.7404 10.6987C11.6501 10.6631 11.5677 10.6101 11.498 10.5427L11.48 10.5247L7.82395 6.86769Z" fill="white" stroke="white" stroke-width="0.5"/>
</svg>
