<svg width="16" height="16" viewBox="0 0 16 16" fill="none" xmlns="http://www.w3.org/2000/svg">
<path d="M8.17605 9.13231L11.833 5.47531C11.8996 5.40223 11.9802 5.34324 12.0699 5.30183C12.1597 5.26043 12.2568 5.23745 12.3556 5.23427C12.4544 5.23109 12.5529 5.24776 12.6451 5.28329C12.7374 5.31883 12.8215 5.37251 12.8927 5.44116C12.9638 5.50981 13.0204 5.59203 13.0592 5.68296C13.098 5.77389 13.1181 5.87167 13.1184 5.97052C13.1188 6.06937 13.0992 6.16728 13.061 6.25846C13.0228 6.34963 12.9667 6.43221 12.896 6.50131L12.878 6.51931L8.69905 10.6993C8.56046 10.8379 8.37252 10.9157 8.17655 10.9157C7.98058 10.9157 7.79263 10.8379 7.65405 10.6993L3.47505 6.52031C3.40525 6.45288 3.34942 6.37236 3.31074 6.28335C3.27206 6.19434 3.25129 6.09858 3.24962 6.00154C3.24795 5.90451 3.26541 5.80809 3.301 5.7178C3.33659 5.62751 3.38961 5.54511 3.45705 5.47531C3.52448 5.40552 3.605 5.34968 3.69401 5.31101C3.78302 5.27233 3.87878 5.25156 3.97582 5.24989C4.07286 5.24822 4.16927 5.26567 4.25956 5.30126C4.34985 5.33685 4.43225 5.38988 4.50205 5.45731L4.52005 5.47531L8.17605 9.13231Z" fill="white" stroke="white" stroke-width="0.5"/>
</svg>
