<svg width="150" height="150" viewBox="0 0 150 150" fill="none" xmlns="http://www.w3.org/2000/svg">
<g filter="url(#filter0_d_125_202)">
<rect x="30" y="30" width="90" height="90" rx="12" fill="url(#paint0_linear_125_202)" shape-rendering="crispEdges"/>
<path d="M75 52.0925C70.6417 51.9265 66.3948 53.4921 63.1871 56.4473C59.9794 59.4025 58.0717 63.5071 57.8806 67.8644C57.8806 83.1769 69.7631 94.2325 73.7138 97.4482C74.0758 97.7469 74.5306 97.9102 75 97.9102C75.4694 97.9102 75.9242 97.7469 76.2863 97.4482C80.2369 94.2325 92.1194 83.2688 92.1194 67.8644C91.9283 63.5071 90.0206 59.4025 86.8129 56.4473C83.6052 53.4921 79.3583 51.9265 75 52.0925ZM75 93.375C72.1542 90.8746 69.6242 88.0361 67.4663 84.9225C63.8555 79.9551 61.8468 74.004 61.7088 67.8644C61.8986 64.5222 63.4027 61.3906 65.8927 59.1531C68.3827 56.9155 71.6565 55.7536 75 55.9207C78.3435 55.7536 81.6174 56.9155 84.1074 59.1531C86.5973 61.3906 88.1014 64.5222 88.2913 67.8644C88.2913 80.3594 79.2263 89.7919 75 93.375Z" fill="white"/>
<path d="M75 58.2787C73.8944 58.2336 72.7908 58.4085 71.7533 58.7932C70.7158 59.1779 69.7649 59.7647 68.9559 60.5196C68.1468 61.2745 67.4957 62.1825 67.0402 63.1909C66.5848 64.1994 66.334 65.2882 66.3025 66.3943C66.338 67.4991 66.5915 68.586 67.0484 69.5925C67.5052 70.5991 68.1565 71.5055 68.9647 72.2596C69.7729 73.0137 70.7221 73.6007 71.7578 73.9869C72.7935 74.3731 73.8954 74.5508 75 74.5099C77.2236 74.5761 79.3831 73.7597 81.0069 72.2392C82.6307 70.7187 83.587 68.6174 83.6669 66.3943C83.6313 65.2921 83.3788 64.2078 82.9238 63.2033C82.4689 62.1988 81.8204 61.2939 81.0155 60.5401C80.2106 59.7864 79.265 59.1987 78.2328 58.8107C77.2006 58.4227 76.1021 58.2419 75 58.2787ZM75 70.6818C73.7944 70.7487 72.6113 70.335 71.7101 69.5314C70.8089 68.7278 70.2629 67.5997 70.1919 66.3943C70.2629 65.1889 70.8089 64.0608 71.7101 63.2572C72.6113 62.4535 73.7944 62.0399 75 62.1068C76.2088 62.0396 77.3952 62.4524 78.3013 63.2553C79.2074 64.0581 79.7599 65.1862 79.8387 66.3943C79.7599 67.6023 79.2074 68.7304 78.3013 69.5333C77.3952 70.3362 76.2088 70.7489 75 70.6818Z" fill="white"/>
</g>
<defs>
<filter id="filter0_d_125_202" x="0" y="0" width="150" height="150" filterUnits="userSpaceOnUse" color-interpolation-filters="sRGB">
<feFlood flood-opacity="0" result="BackgroundImageFix"/>
<feColorMatrix in="SourceAlpha" type="matrix" values="0 0 0 0 0 0 0 0 0 0 0 0 0 0 0 0 0 0 127 0" result="hardAlpha"/>
<feOffset/>
<feGaussianBlur stdDeviation="15"/>
<feComposite in2="hardAlpha" operator="out"/>
<feColorMatrix type="matrix" values="0 0 0 0 0.443137 0 0 0 0 0.372549 0 0 0 0 0.976471 0 0 0 0.5 0"/>
<feBlend mode="normal" in2="BackgroundImageFix" result="effect1_dropShadow_125_202"/>
<feBlend mode="normal" in="SourceGraphic" in2="effect1_dropShadow_125_202" result="shape"/>
</filter>
<linearGradient id="paint0_linear_125_202" x1="30" y1="30" x2="120" y2="124" gradientUnits="userSpaceOnUse">
<stop stop-color="#6754DD"/>
<stop offset="1" stop-color="#986ADD"/>
</linearGradient>
</defs>
</svg>
