<svg width="120" height="120" viewBox="0 0 120 120" fill="none" xmlns="http://www.w3.org/2000/svg">
<rect width="120" height="120" rx="60" fill="url(#paint0_linear_136_931)"/>
<path d="M52.86 69.18L41.895 58.215C40.96 57.28 39.77 56.8125 38.325 56.8125C36.88 56.8125 35.69 57.28 34.755 58.215C33.82 59.15 33.3525 60.34 33.3525 61.785C33.3525 63.23 33.82 64.42 34.755 65.355L49.29 79.89C50.31 80.91 51.5 81.42 52.86 81.42C54.22 81.42 55.41 80.91 56.43 79.89L85.245 51.075C86.18 50.14 86.6475 48.95 86.6475 47.505C86.6475 46.06 86.18 44.87 85.245 43.935C84.31 43 83.12 42.5325 81.675 42.5325C80.23 42.5325 79.04 43 78.105 43.935L52.86 69.18ZM60 111C52.945 111 46.315 109.66 40.11 106.981C33.905 104.302 28.5075 100.669 23.9175 96.0825C19.3275 91.4959 15.6946 86.0984 13.0188 79.89C10.343 73.6816 9.00341 67.0516 9.00001 60C8.99661 52.9484 10.3362 46.3184 13.0188 40.11C15.7014 33.9016 19.3343 28.5041 23.9175 23.9175C28.5007 19.3309 33.8982 15.698 40.11 13.0188C46.3218 10.3396 52.9518 9 60 9C67.0482 9 73.6782 10.3396 79.89 13.0188C86.1017 15.698 91.4993 19.3309 96.0825 23.9175C100.666 28.5041 104.3 33.9016 106.986 40.11C109.672 46.3184 111.01 52.9484 111 60C110.99 67.0516 109.65 73.6816 106.981 79.89C104.312 86.0984 100.679 91.4959 96.0825 96.0825C91.4857 100.669 86.0881 104.304 79.89 106.986C73.6918 109.669 67.0618 111.007 60 111Z" fill="#13171D"/>
<path d="M52.86 69.18L41.895 58.215C40.96 57.28 39.77 56.8125 38.325 56.8125C36.88 56.8125 35.69 57.28 34.755 58.215C33.82 59.15 33.3525 60.34 33.3525 61.785C33.3525 63.23 33.82 64.42 34.755 65.355L49.29 79.89C50.31 80.91 51.5 81.42 52.86 81.42C54.22 81.42 55.41 80.91 56.43 79.89L85.245 51.075C86.18 50.14 86.6475 48.95 86.6475 47.505C86.6475 46.06 86.18 44.87 85.245 43.935C84.31 43 83.12 42.5325 81.675 42.5325C80.23 42.5325 79.04 43 78.105 43.935L52.86 69.18ZM60 111C52.945 111 46.315 109.66 40.11 106.981C33.905 104.302 28.5075 100.669 23.9175 96.0825C19.3275 91.4959 15.6946 86.0984 13.0188 79.89C10.343 73.6816 9.00341 67.0516 9.00001 60C8.99661 52.9484 10.3362 46.3184 13.0188 40.11C15.7014 33.9016 19.3343 28.5041 23.9175 23.9175C28.5007 19.3309 33.8982 15.698 40.11 13.0188C46.3218 10.3396 52.9518 9 60 9C67.0482 9 73.6782 10.3396 79.89 13.0188C86.1017 15.698 91.4993 19.3309 96.0825 23.9175C100.666 28.5041 104.3 33.9016 106.986 40.11C109.672 46.3184 111.01 52.9484 111 60C110.99 67.0516 109.65 73.6816 106.981 79.89C104.312 86.0984 100.679 91.4959 96.0825 96.0825C91.4857 100.669 86.0881 104.304 79.89 106.986C73.6918 109.669 67.0618 111.007 60 111Z" fill="black" fill-opacity="0.2"/>
<path d="M52.86 69.18L41.895 58.215C40.96 57.28 39.77 56.8125 38.325 56.8125C36.88 56.8125 35.69 57.28 34.755 58.215C33.82 59.15 33.3525 60.34 33.3525 61.785C33.3525 63.23 33.82 64.42 34.755 65.355L49.29 79.89C50.31 80.91 51.5 81.42 52.86 81.42C54.22 81.42 55.41 80.91 56.43 79.89L85.245 51.075C86.18 50.14 86.6475 48.95 86.6475 47.505C86.6475 46.06 86.18 44.87 85.245 43.935C84.31 43 83.12 42.5325 81.675 42.5325C80.23 42.5325 79.04 43 78.105 43.935L52.86 69.18ZM60 111C52.945 111 46.315 109.66 40.11 106.981C33.905 104.302 28.5075 100.669 23.9175 96.0825C19.3275 91.4959 15.6946 86.0984 13.0188 79.89C10.343 73.6816 9.00341 67.0516 9.00001 60C8.99661 52.9484 10.3362 46.3184 13.0188 40.11C15.7014 33.9016 19.3343 28.5041 23.9175 23.9175C28.5007 19.3309 33.8982 15.698 40.11 13.0188C46.3218 10.3396 52.9518 9 60 9C67.0482 9 73.6782 10.3396 79.89 13.0188C86.1017 15.698 91.4993 19.3309 96.0825 23.9175C100.666 28.5041 104.3 33.9016 106.986 40.11C109.672 46.3184 111.01 52.9484 111 60C110.99 67.0516 109.65 73.6816 106.981 79.89C104.312 86.0984 100.679 91.4959 96.0825 96.0825C91.4857 100.669 86.0881 104.304 79.89 106.986C73.6918 109.669 67.0618 111.007 60 111Z" fill="black" fill-opacity="0.2"/>
<defs>
<linearGradient id="paint0_linear_136_931" x1="0" y1="60" x2="120" y2="60" gradientUnits="userSpaceOnUse">
<stop stop-color="#705FFA"/>
<stop offset="1" stop-color="#A366E4"/>
</linearGradient>
</defs>
</svg>
